<svg width="275" height="70" viewBox="0 0 275 70" fill="none" xmlns="http://www.w3.org/2000/svg">
<g filter="url(#filter0_i_405_571)">
<rect x="15" y="12" width="259.875" height="44" rx="20" fill="#3D8EDE"/>
<path d="M82.8434 45.392C80.3047 45.392 78.4101 44.5613 77.1594 42.9C75.9274 41.2387 75.3114 39.0453 75.3114 36.32V34.024C75.3114 31.2987 75.9274 29.1147 77.1594 27.472C78.4101 25.8293 80.3047 25.008 82.8434 25.008C85.4007 25.008 87.2954 25.8387 88.5274 27.5C89.7781 29.1427 90.4034 31.3173 90.4034 34.024V36.32C90.4034 39.0453 89.7781 41.2387 88.5274 42.9C87.2767 44.5613 85.3821 45.392 82.8434 45.392ZM82.8434 42.032C83.9634 42.032 84.7754 41.5653 85.2794 40.632C85.8021 39.68 86.0634 38.2893 86.0634 36.46V33.856C86.0634 32.0453 85.8021 30.6827 85.2794 29.768C84.7754 28.8347 83.9634 28.368 82.8434 28.368C81.7421 28.368 80.9301 28.8347 80.4074 29.768C79.9034 30.6827 79.6514 32.0453 79.6514 33.856V36.46C79.6514 38.2893 79.9034 39.68 80.4074 40.632C80.9301 41.5653 81.7421 42.032 82.8434 42.032ZM99.982 45.252C97.742 45.252 96.0154 44.7013 94.802 43.6C93.5887 42.4987 92.87 41.0987 92.646 39.4H96.566C96.7714 40.1653 97.1634 40.7627 97.742 41.192C98.3207 41.6213 99.058 41.836 99.954 41.836C100.981 41.836 101.774 41.5747 102.334 41.052C102.913 40.5107 103.202 39.8293 103.202 39.008C103.202 38.1307 102.894 37.4493 102.278 36.964C101.681 36.46 100.915 36.208 99.982 36.208H98.218V33.268H100.01C100.85 33.268 101.541 33.0533 102.082 32.624C102.623 32.176 102.894 31.5507 102.894 30.748C102.894 29.9453 102.614 29.3013 102.054 28.816C101.513 28.3307 100.794 28.088 99.898 28.088C99.0394 28.088 98.3487 28.3027 97.826 28.732C97.322 29.1613 96.9954 29.7493 96.846 30.496H93.038C93.2807 28.9093 93.9527 27.584 95.054 26.52C96.1554 25.4373 97.7794 24.896 99.926 24.896C101.494 24.896 102.791 25.1853 103.818 25.764C104.845 26.324 105.582 27.0427 106.03 27.92C106.497 28.7973 106.73 29.6933 106.73 30.608C106.73 31.5413 106.506 32.316 106.058 32.932C105.629 33.548 105.162 34.0053 104.658 34.304C104.173 34.6027 103.865 34.752 103.734 34.752V34.92C104.126 35.0507 104.527 35.228 104.938 35.452C105.349 35.6573 105.787 36.0867 106.254 36.74C106.721 37.3933 106.954 38.2707 106.954 39.372C106.954 40.4173 106.702 41.388 106.198 42.284C105.694 43.18 104.919 43.8987 103.874 44.44C102.829 44.9813 101.531 45.252 99.982 45.252ZM116.662 45.252C115.374 45.252 114.179 45 113.078 44.496C111.995 43.9733 111.118 43.18 110.446 42.116C109.774 41.052 109.438 39.7453 109.438 38.196C109.438 36.7027 109.718 35.3307 110.278 34.08C110.838 32.8293 111.612 31.4667 112.602 29.992L115.57 25.4H119.35L113.722 33.856L113.834 33.912L114.226 33.52C114.655 33.1093 115.14 32.7827 115.682 32.54C116.223 32.2787 116.914 32.148 117.754 32.148C118.948 32.148 119.984 32.428 120.862 32.988C121.758 33.548 122.448 34.3133 122.934 35.284C123.419 36.2547 123.662 37.3467 123.662 38.56C123.662 39.9973 123.344 41.22 122.71 42.228C122.075 43.236 121.226 43.992 120.162 44.496C119.098 45 117.931 45.252 116.662 45.252ZM116.494 42.144C117.595 42.144 118.435 41.7893 119.014 41.08C119.592 40.352 119.882 39.512 119.882 38.56C119.882 37.608 119.592 36.768 119.014 36.04C118.435 35.2933 117.595 34.92 116.494 34.92C115.411 34.92 114.58 35.284 114.002 36.012C113.442 36.7213 113.162 37.5613 113.162 38.532C113.162 39.5027 113.451 40.352 114.03 41.08C114.608 41.7893 115.43 42.144 116.494 42.144ZM134.465 40.352L125.813 40.324V37.384L133.401 25.4H138.273V37.384H140.709V40.352H138.273V45H134.465V40.352ZM134.493 37.328V29.964L129.705 37.328H134.493ZM146.484 45.224C145.868 45.224 145.345 45.0187 144.916 44.608C144.505 44.1787 144.3 43.656 144.3 43.04C144.3 42.424 144.505 41.9013 144.916 41.472C145.345 41.0427 145.868 40.828 146.484 40.828C147.119 40.828 147.641 41.0427 148.052 41.472C148.481 41.9013 148.696 42.424 148.696 43.04C148.696 43.6373 148.481 44.1507 148.052 44.58C147.641 45.0093 147.119 45.224 146.484 45.224ZM152.625 41.696L155.733 38.98L157.049 37.888C158.281 36.88 159.242 36.0587 159.933 35.424C160.623 34.7893 161.193 34.1173 161.641 33.408C162.089 32.68 162.313 31.9427 162.313 31.196C162.313 30.3933 162.07 29.712 161.585 29.152C161.099 28.592 160.362 28.312 159.373 28.312C158.159 28.312 157.347 28.6667 156.937 29.376C156.545 30.0667 156.349 30.804 156.349 31.588V31.924H152.541C152.541 30.524 152.811 29.3013 153.353 28.256C153.913 27.2107 154.697 26.408 155.705 25.848C156.731 25.2693 157.935 24.98 159.317 24.98C160.717 24.98 161.911 25.2507 162.901 25.792C163.909 26.3147 164.665 27.0333 165.169 27.948C165.691 28.8627 165.953 29.8707 165.953 30.972C165.953 32.0733 165.719 33.0813 165.253 33.996C164.786 34.892 164.226 35.676 163.573 36.348C162.919 37.0013 162.079 37.7573 161.053 38.616L160.605 39.008L157.721 41.472V41.612H166.121V45H152.653L152.625 41.696ZM169.25 41.696L172.358 38.98L173.674 37.888C174.906 36.88 175.867 36.0587 176.558 35.424C177.248 34.7893 177.818 34.1173 178.266 33.408C178.714 32.68 178.938 31.9427 178.938 31.196C178.938 30.3933 178.695 29.712 178.21 29.152C177.724 28.592 176.987 28.312 175.998 28.312C174.784 28.312 173.972 28.6667 173.562 29.376C173.17 30.0667 172.974 30.804 172.974 31.588V31.924H169.166C169.166 30.524 169.436 29.3013 169.978 28.256C170.538 27.2107 171.322 26.408 172.33 25.848C173.356 25.2693 174.56 24.98 175.942 24.98C177.342 24.98 178.536 25.2507 179.526 25.792C180.534 26.3147 181.29 27.0333 181.794 27.948C182.316 28.8627 182.578 29.8707 182.578 30.972C182.578 32.0733 182.344 33.0813 181.878 33.996C181.411 34.892 180.851 35.676 180.198 36.348C179.544 37.0013 178.704 37.7573 177.678 38.616L177.23 39.008L174.346 41.472V41.612H182.746V45H169.278L169.25 41.696ZM198.055 41.612V45H186.351V41.612H190.551V30.02H190.439L186.323 33.772V29.152L190.467 25.4H194.275V41.612H198.055ZM203.386 45.224C202.77 45.224 202.248 45.0187 201.818 44.608C201.408 44.1787 201.202 43.656 201.202 43.04C201.202 42.424 201.408 41.9013 201.818 41.472C202.248 41.0427 202.77 40.828 203.386 40.828C204.021 40.828 204.544 41.0427 204.954 41.472C205.384 41.9013 205.598 42.424 205.598 43.04C205.598 43.6373 205.384 44.1507 204.954 44.58C204.544 45.0093 204.021 45.224 203.386 45.224ZM209.527 41.696L212.635 38.98L213.951 37.888C215.183 36.88 216.144 36.0587 216.835 35.424C217.526 34.7893 218.095 34.1173 218.543 33.408C218.991 32.68 219.215 31.9427 219.215 31.196C219.215 30.3933 218.972 29.712 218.487 29.152C218.002 28.592 217.264 28.312 216.275 28.312C215.062 28.312 214.25 28.6667 213.839 29.376C213.447 30.0667 213.251 30.804 213.251 31.588V31.924H209.443C209.443 30.524 209.714 29.3013 210.255 28.256C210.815 27.2107 211.599 26.408 212.607 25.848C213.634 25.2693 214.838 24.98 216.219 24.98C217.619 24.98 218.814 25.2507 219.803 25.792C220.811 26.3147 221.567 27.0333 222.071 27.948C222.594 28.8627 222.855 29.8707 222.855 30.972C222.855 32.0733 222.622 33.0813 222.155 33.996C221.688 34.892 221.128 35.676 220.475 36.348C219.822 37.0013 218.982 37.7573 217.955 38.616L217.507 39.008L214.623 41.472V41.612H223.023V45H209.555L209.527 41.696ZM226.152 41.696L229.26 38.98L230.576 37.888C231.808 36.88 232.769 36.0587 233.46 35.424C234.151 34.7893 234.72 34.1173 235.168 33.408C235.616 32.68 235.84 31.9427 235.84 31.196C235.84 30.3933 235.597 29.712 235.112 29.152C234.627 28.592 233.889 28.312 232.9 28.312C231.687 28.312 230.875 28.6667 230.464 29.376C230.072 30.0667 229.876 30.804 229.876 31.588V31.924H226.068C226.068 30.524 226.339 29.3013 226.88 28.256C227.44 27.2107 228.224 26.408 229.232 25.848C230.259 25.2693 231.463 24.98 232.844 24.98C234.244 24.98 235.439 25.2507 236.428 25.792C237.436 26.3147 238.192 27.0333 238.696 27.948C239.219 28.8627 239.48 29.8707 239.48 30.972C239.48 32.0733 239.247 33.0813 238.78 33.996C238.313 34.892 237.753 35.676 237.1 36.348C236.447 37.0013 235.607 37.7573 234.58 38.616L234.132 39.008L231.248 41.472V41.612H239.648V45H226.18L226.152 41.696ZM254.957 41.612V45H243.253V41.612H247.453V30.02H247.341L243.225 33.772V29.152L247.369 25.4H251.177V41.612H254.957Z" fill="white"/>
</g>
<g filter="url(#filter1_d_405_571)">
<circle cx="34" cy="34" r="30" fill="#2BACE2"/>
<path d="M44.6667 35.0543C44.3111 35.0543 43.9947 34.9364 43.7173 34.7005C43.4391 34.4655 43.2778 34.174 43.2333 33.826C42.9444 31.9222 42.0724 30.2997 40.6173 28.9585C39.1613 27.618 37.4 26.8147 35.3333 26.5486C34.9556 26.5077 34.6391 26.3644 34.384 26.1187C34.128 25.8731 34 25.5763 34 25.2283C34 24.8802 34.1333 24.5883 34.4 24.3525C34.6667 24.1175 34.9778 24.0205 35.3333 24.0614C38.1333 24.348 40.5222 25.4023 42.5 27.2242C44.4778 29.0461 45.6222 31.2467 45.9333 33.826C45.9778 34.1536 45.872 34.4401 45.616 34.6858C45.3609 34.9315 45.0444 35.0543 44.6667 35.0543ZM39.1 35.0543C38.8111 35.0543 38.5556 34.9622 38.3333 34.7779C38.1111 34.5937 37.9444 34.348 37.8333 34.041C37.6556 33.4473 37.3169 32.92 36.8173 32.459C36.3169 31.9988 35.7444 31.6868 35.1 31.523C34.7667 31.4207 34.5 31.2672 34.3 31.0625C34.1 30.8577 34 30.6121 34 30.3255C34 29.9161 34.1556 29.5832 34.4667 29.3269C34.7778 29.0715 35.1222 28.9847 35.5 29.0665C36.7444 29.3327 37.8169 29.8801 38.7173 30.7087C39.6169 31.5382 40.2111 32.5261 40.5 33.6725C40.5889 34.0205 40.4889 34.3378 40.2 34.6244C39.9111 34.911 39.5444 35.0543 39.1 35.0543ZM44.6 46.1086C41.7333 46.1086 38.9391 45.5198 36.2173 44.3423C33.4947 43.1657 31.0836 41.6099 28.984 39.675C26.8836 37.7409 25.1947 35.5198 23.9173 33.0117C22.6391 30.5044 22 27.9304 22 25.2897C22 24.9212 22.1333 24.6141 22.4 24.3685C22.6667 24.1228 23 24 23.4 24H28.8C29.1111 24 29.3889 24.0921 29.6333 24.2764C29.8778 24.4606 30.0222 24.696 30.0667 24.9826L30.9333 29.2815C30.9778 29.5681 30.9724 29.8289 30.9173 30.0639C30.8613 30.2997 30.7333 30.5097 30.5333 30.694L27.3333 33.7032C28.2667 35.1771 29.4333 36.5589 30.8333 37.8486C32.2333 39.1382 33.7778 40.2539 35.4667 41.1955L38.6 38.3091C38.8 38.1249 39.0613 37.9865 39.384 37.894C39.7058 37.8023 40.0222 37.7769 40.3333 37.8178L44.9333 38.6776C45.2444 38.739 45.5 38.877 45.7 39.0915C45.9 39.3069 46 39.5579 46 39.8445V44.8189C46 45.1874 45.8667 45.4944 45.6 45.7401C45.3333 45.9857 45 46.1086 44.6 46.1086ZM26.0667 31.3695L28.2667 29.3429L27.6667 26.4565H24.7333C24.8444 27.2958 25 28.1249 25.2 28.9437C25.4 29.7626 25.6889 30.5712 26.0667 31.3695ZM43.3333 43.5906V40.8885L40.2 40.2744L38 42.301C38.8667 42.649 39.7444 42.9356 40.6333 43.1607C41.5222 43.3859 42.4222 43.5292 43.3333 43.5906Z" fill="#F8F8F8"/>
</g>
<defs>
<filter id="filter0_i_405_571" x="15" y="12" width="259.875" height="46" filterUnits="userSpaceOnUse" color-interpolation-filters="sRGB">
<feFlood flood-opacity="0" result="BackgroundImageFix"/>
<feBlend mode="normal" in="SourceGraphic" in2="BackgroundImageFix" result="shape"/>
<feColorMatrix in="SourceAlpha" type="matrix" values="0 0 0 0 0 0 0 0 0 0 0 0 0 0 0 0 0 0 127 0" result="hardAlpha"/>
<feOffset dy="2"/>
<feGaussianBlur stdDeviation="1"/>
<feComposite in2="hardAlpha" operator="arithmetic" k2="-1" k3="1"/>
<feColorMatrix type="matrix" values="0 0 0 0 0.265894 0 0 0 0 0.4375 0 0 0 0 0.0546875 0 0 0 0.5 0"/>
<feBlend mode="normal" in2="shape" result="effect1_innerShadow_405_571"/>
</filter>
<filter id="filter1_d_405_571" x="0" y="0" width="70" height="70" filterUnits="userSpaceOnUse" color-interpolation-filters="sRGB">
<feFlood flood-opacity="0" result="BackgroundImageFix"/>
<feColorMatrix in="SourceAlpha" type="matrix" values="0 0 0 0 0 0 0 0 0 0 0 0 0 0 0 0 0 0 127 0" result="hardAlpha"/>
<feOffset dx="1" dy="1"/>
<feGaussianBlur stdDeviation="2.5"/>
<feComposite in2="hardAlpha" operator="out"/>
<feColorMatrix type="matrix" values="0 0 0 0 0.239216 0 0 0 0 0.556863 0 0 0 0 0.870588 0 0 0 0.55 0"/>
<feBlend mode="normal" in2="BackgroundImageFix" result="effect1_dropShadow_405_571"/>
<feBlend mode="normal" in="SourceGraphic" in2="effect1_dropShadow_405_571" result="shape"/>
</filter>
</defs>
</svg>
